<svg width="290" height="292" viewBox="0 0 290 292" fill="none" xmlns="http://www.w3.org/2000/svg">
<path d="M100.567 0.349982V20.15C93.2672 20.15 86.6172 20.9 80.6172 22.4C74.7172 23.8 70.1172 26.25 66.8172 29.75C63.6172 33.25 62.2672 38.05 62.7672 44.15L69.0672 105.65C69.9672 114.05 69.4672 121 67.5672 126.5C65.6672 132 62.4672 136.3 57.9672 139.4C53.5672 142.5 47.9172 144.7 41.0172 146C48.0172 147.2 53.7672 149.3 58.2672 152.3C62.7672 155.2 65.9172 159.4 67.7172 164.9C69.5172 170.3 69.9672 177.45 69.0672 186.35L62.7672 247.85C62.2672 254.05 63.6172 258.9 66.8172 262.4C70.0172 265.9 74.6172 268.35 80.6172 269.75C86.6172 271.15 93.2672 271.85 100.567 271.85V291.65C92.1672 291.65 84.1172 290.9 76.4172 289.4C68.7172 288 61.9172 285.55 56.0172 282.05C50.1172 278.55 45.6672 273.75 42.6672 267.65C39.6672 261.65 38.6672 254.05 39.6672 244.85L45.6672 187.85C46.4672 180.95 45.8172 175.15 43.7172 170.45C41.7172 165.75 37.3172 162.2 30.5172 159.8C23.8172 157.3 13.7672 156.05 0.36719 156.05V135.95C13.7672 135.95 23.8172 134.75 30.5172 132.35C37.3172 129.95 41.7172 126.4 43.7172 121.7C45.8172 117 46.4672 111.25 45.6672 104.45L39.6672 47.15C38.6672 37.95 39.6672 30.35 42.6672 24.35C45.6672 18.25 50.0672 13.45 55.8672 9.94998C61.7672 6.44999 68.5672 3.99999 76.2672 2.59998C84.0672 1.09998 92.1672 0.349982 100.567 0.349982ZM189.55 0.349982C197.95 0.349982 206 1.09998 213.7 2.59998C221.4 3.99999 228.2 6.44999 234.1 9.94998C240 13.45 244.45 18.25 247.45 24.35C250.55 30.35 251.55 37.95 250.45 47.15L244.45 104.45C243.65 111.25 244.5 117 247 121.7C249.6 126.4 254.3 129.95 261.1 132.35C267.9 134.75 277.45 135.95 289.75 135.95V156.05C277.55 156.05 268 157.3 261.1 159.8C254.3 162.2 249.6 165.75 247 170.45C244.5 175.15 243.65 180.95 244.45 187.85L250.45 244.85C251.45 254.05 250.45 261.65 247.45 267.65C244.45 273.75 240 278.55 234.1 282.05C228.3 285.55 221.5 288 213.7 289.4C206 290.9 197.95 291.65 189.55 291.65V271.85C196.85 271.85 203.45 271.15 209.35 269.75C215.35 268.35 220 265.9 223.3 262.4C226.6 258.9 227.95 254.05 227.35 247.85L221.05 186.35C220.15 177.45 220.65 170.3 222.55 164.9C224.45 159.4 227.85 155.2 232.75 152.3C237.75 149.4 244.3 147.4 252.4 146.3C244.6 145 238.2 142.75 233.2 139.55C228.3 136.35 224.85 132 222.85 126.5C220.85 121 220.25 114.05 221.05 105.65L227.35 44.15C227.95 38.05 226.6 33.25 223.3 29.75C220 26.25 215.4 23.8 209.5 22.4C203.6 20.9 196.95 20.15 189.55 20.15V0.349982Z" fill="url(#paint0_linear_1_6)"/>
<defs>
<linearGradient id="paint0_linear_1_6" x1="145" y1="-23" x2="145" y2="325" gradientUnits="userSpaceOnUse">
<stop stop-color="#00F0FF"/>
<stop offset="0.515625" stop-color="#A4F4FF"/>
<stop offset="1" stop-color="#00FFF0"/>
</linearGradient>
</defs>
</svg>
